# AST/ASF file generated using VICON BodyLanguage
# -----------------------------------------------
:version 1.10
:name VICON
:units
  mass 1.0
  length 0.45
  angle deg
:documentation
   .ast/.asf automatically generated from VICON data using
   VICON BodyBuilder and BodyLanguage model FoxedUp or BRILLIANT.MOD
:root
   order TX TY TZ RX RY RZ
   axis XYZ
   position 0 0 0  
   orientation 0 0 0 
:bonedata
  begin
     id 1 
     name lhipjoint
     direction 0.707368 -0.647095 0.284426 
     length 2.60678 
     axis 0 0 0  XYZ
  end
  begin
     id 2 
     name lfemur
     direction 0.34202 -0.939693 0  
     length 6.63812  
     axis 0 0 20  XYZ
    dof rx ry rz
    limits (-160.0 20.0)
           (-70.0 70.0)
           (-60.0 70.0)
  end
  begin
     id 3 
     name ltibia
     direction 0.34202 -0.939693 0   
     length 7.51178   
     axis 0 0 20   XYZ
    dof rx
    limits (-10.0 170.0)
  end
  begin
     id 4 
     name lfoot
     direction 0.121251 -0.333133 0.935051   
     length 1.83716   
     axis -90 7.62852e-016 20   XYZ
    dof rx rz
    limits (-45.0 90.0)
           (-70.0 20.0)
  end
  begin
     id 5 
     name ltoes
     direction 1.53611e-011 -4.21962e-011 1   
     length 0.916133   
     axis -90 7.62852e-016 20   XYZ
    dof rx
    limits (-90.0 20.0)
  end
  begin
     id 6 
     name rhipjoint
     direction -0.692419 -0.660507 0.290321   
     length 2.55385  
     axis 0 0 0  XYZ 
  end
  begin
     id 7 
     name rfemur
     direction -0.34202 -0.939693 0   
     length 7.29079   
     axis 0 0 -20   XYZ
    dof rx ry rz
    limits (-160.0 20.0)
           (-70.0 70.0)
           (-70.0 60.0)
  end
  begin
     id 8 
     name rtibia
     direction -0.34202 -0.939693 0   
     length 7.47143   
     axis 0 0 -20   XYZ
    dof rx
    limits (-10.0 170.0)
 end
 begin
     id 9 
     name rfoot
     direction -0.119907 -0.329441 0.936532   
     length 1.79439  
     axis -90 -7.62852e-016 -20   XYZ
    dof rx rz
    limits (-45.0 90.0)
           (-20.0 70.0)
  end
  begin
     id 10 
     name rtoes
     direction -1.53571e-011 -4.21961e-011 1   
     length 0.896039   
     axis -90 -7.62852e-016 -20   XYZ
    dof rx
    limits (-90.0 20.0)
  end
  begin
     id 11 
     name lowerback
     direction 0.0367721 0.992912 -0.113016   
     length 1.73542   
     axis 0 0 0   XYZ
    dof rx ry rz
    limits (-20.0 45.0)
           (-30.0 30.0)
           (-30.0 30.0)
  end
  begin
     id 12 
     name upperback
     direction -0.000314626 0.990678 0.136227   
     length 1.7514   
     axis 0 0 0   XYZ
    dof rx ry rz
    limits (-20.0 45.0)
           (-30.0 30.0)
           (-30.0 30.0)
  end
  begin
     id 13 
     name thorax
     direction -0.0226159 0.981151 0.191917   
     length 1.71471   
     axis 0 0 0   XYZ
    dof rx ry rz
    limits (-20.0 45.0)
           (-30.0 30.0)
           (-30.0 30.0)
  end
  begin
     id 14 
     name lowerneck
     direction 0.0219333 0.998071 0.0580739   
     length 1.65882   
     axis 0 0 0   XYZ
    dof rx ry rz
    limits (-20.0 45.0)
           (-30.0 30.0)
           (-30.0 30.0)
  end
  begin
     id 15 
     name upperneck
     direction 0.0384529 0.980058 -0.194957   
     length 1.6612   
     axis 0 0 0   XYZ
    dof rx ry rz
    limits (-20.0 45.0)
           (-30.0 30.0)
           (-30.0 30.0)
  end
  begin
     id 16
     name head
     direction 0.00592123 0.997421 -0.0715234  
     length 1.68077  
     axis 0 0 0   XYZ
    dof rx ry rz
    limits (-20.0 45.0)
           (-30.0 30.0)
           (-30.0 30.0)
  end
  begin
     id 17 
     name lclavicle
     direction 0.904803 0.417826 0.0821728  
     length 3.42227  
     axis 0 0 0   XYZ
    dof ry rz
    limits (-20.0 10.0)
           (0.0 20.0)
  end
  begin
     id 18 
     name lhumerus
     direction 1 -4.48965e-011 -2.68786e-027   
     length 5.11878   
     axis -180 -30 -90   XYZ
    dof rx ry rz
    limits (-60.0 90.0)
           (-90.0 90.0)
           (-90.0 90.0)
  end
  begin
     id 19
     name lradius
     direction 1 -4.48965e-011 2.61168e-028   
     length 3.59971   
     axis -180 -30 -90   XYZ
    dof rx
    limits (-10.0 170.0)
  end
  begin
     id 20
     name lwrist
     direction 1 -4.48965e-011 1.58672e-027   
     length 1.79985   
     axis -1.65735e-015 90 90   XYZ
    dof ry
    limits (-180.0 0.0)
 end
  begin
     id 21 
     name lhand
     direction 1 -4.48942e-011 3.17344e-027   
     length 0.62877   
     axis -2.02492e-015 90 90   XYZ
    dof rx rz
    limits (-90.0 90.0)
           (-45.0 45.0)
  end
  begin
     id 22 
     name lfingers
     direction 1 -4.49011e-011 6.34687e-027   
     length 0.506931   
     axis -4.04985e-015 90 90   XYZ
    dof rx
    limits (0.0 90.0)
  end
  begin
     id 23
     name lthumb
     direction 0.707107 -6.34982e-011 0.707107   
     length 0.727854   
     axis -90 45 2.85299e-015   XYZ
    dof rx rz
    limits (-45.0 45.0)
           (-45.0 45.0)
  end
  begin
     id 24 
     name rclavicle
     direction -0.945647 0.32488 0.0143075   
     length 3.52737  
     axis 0 0 0   XYZ 
    dof ry rz
    limits (-10.0 20.0)
           (-20.0 0.0)
  end
  begin
     id 25 
     name rhumerus
     direction -1 -4.48962e-011 1.92182e-027  
     length 5.4902   
     axis -180 30 90   XYZ
    dof rx ry rz
    limits (-90.0 60.0)
           (-90.0 90.0)
           (-90.0 90.0)
  end
  begin
     id 26 
     name rradius
     direction -1 -4.48967e-011 -5.97193e-028   
     length 3.20659   
     axis -180 30 90   XYZ
    dof rx
    limits (-10.0 170.0)
  end
  begin
     id 27 
     name rwrist
     direction -1 -4.48964e-011 1.58672e-027   
     length 1.6033   
     axis -1.65735e-015 -90 -90   XYZ
    dof ry
    limits (-180.0 0.0)
  end
  begin
     id 28
     name rhand
     direction -1 -4.49006e-011 3.17344e-027   
     length 0.691885   
     axis -2.02492e-015 -90 -90   XYZ
    dof rx rz
    limits (-90.0 90.0)
           (-45.0 45.0)
  end
  begin
     id 29
     name rfingers
     direction -1 -4.48908e-011 6.34687e-027   
     length 0.557815   
     axis -4.04985e-015 -90 -90   XYZ
    dof rx
    limits (0.0 90.0)
  end
  begin
     id 30
     name rthumb
     direction -0.707107 -6.34999e-011 0.707107   
     length 0.800915   
     axis -90 -45 -2.85299e-015   XYZ
    dof rx rz
    limits (-45.0 45.0)
           (-45.0 45.0)
  end
:hierarchy
  begin
    root lhipjoint rhipjoint lowerback
    lhipjoint lfemur
    lfemur ltibia
    ltibia lfoot
    lfoot ltoes
    rhipjoint rfemur
    rfemur rtibia
    rtibia rfoot
    rfoot rtoes
    lowerback upperback
    upperback thorax
    thorax lowerneck lclavicle rclavicle
    lowerneck upperneck
    upperneck head
    lclavicle lhumerus
    lhumerus lradius
    lradius lwrist
    lwrist lhand lthumb
    lhand lfingers
    rclavicle rhumerus
    rhumerus rradius
    rradius rwrist
    rwrist rhand rthumb
    rhand rfingers
  end

#!OML:ASF I:\Actors\actors\Patient Classification 1\Patient 1\Session 1\Subject1.ASF
:FULLY-SPECIFIED
:DEGREES
147
root -0.755381 17.4915 7.61026 8.27161 -1.95343 -8.70563
lowerback 1.74456 1.25921 5.68141
upperback -9.12919 2.32092 2.2396
thorax -10.6065 0.762887 -1.01764
lowerneck -6.47358 -6.60327 -5.9093
upperneck 8.65945 -9.5206 11.6597
head 4.50158 -4.31951 3.94757
rclavicle -1.79403e-014 -1.76918e-014
rhumerus -46.3642 10.6378 -97.5453
rradius 36.5608
rwrist 20.7924
rhand 17.853 -38.5951
rfingers 7.12502
rthumb 42.53 -63.005
lclavicle -1.79403e-014 -1.76918e-014
lhumerus -45.6574 0.551705 89.025
lradius 26.6732
lwrist -17.5873
lhand -15.1808 -7.50243
lfingers 7.12502
lthumb 10.9904 22.1899
rfemur -4.87676 20.351 27.6233
rtibia 5.23852
rfoot -11.1694 -20.2698
rtoes 2.18508
lfemur 6.487 -43.6166 -12.6419
ltibia -4.90362
lfoot -21.2194 51.2996
ltoes 10.156
148
root -0.800585 17.4916 7.60539 8.15605 -1.77553 -8.6802
lowerback 1.95202 1.20502 5.7612
upperback -9.04853 2.26994 2.27528
thorax -10.6433 0.733061 -1.02329
lowerneck -6.82303 -6.44057 -5.69908
upperneck 8.47402 -9.25801 11.3944
head 4.45803 -4.18978 3.84301
rclavicle 2.27857e-014 -1.86858e-014
rhumerus -46.7581 11.4651 -98.0758
rradius 38.0638
rwrist 19.8406
rhand 17.8695 -39.2712
rfingers 7.12502
rthumb 42.5454 -63.6758
lclavicle 2.27857e-014 -1.86858e-014
lhumerus -46.3625 0.524441 89.2515
lradius 28.4137
lwrist -15.8471
lhand -14.0429 -6.85977
lfingers 7.12502
lthumb 12.0877 22.7711
rfemur -4.87089 19.9432 27.7916
rtibia 5.42016
rfoot -11.2878 -20.014
rtoes 2.33273
lfemur 6.48515 -43.4927 -12.4855
ltibia -4.846
lfoot -20.9723 51.0773
ltoes 9.7429
149
root -0.848017 17.491 7.60041 8.06798 -1.59288 -8.61731
lowerback 2.15014 1.16821 5.83064
upperback -8.9761 2.23837 2.27348
thorax -10.6813 0.711521 -1.06505
lowerneck -7.1853 -6.28508 -5.56992
upperneck 8.29116 -9.01609 11.2832
head 4.43149 -4.06481 3.79745
rclavicle 5.76476e-015 -6.16232e-014
rhumerus -47.1996 12.3776 -98.6631
rradius 39.8718
rwrist 18.4457
rhand 17.8346 -40.0378
rfingers 7.12502
rthumb 42.5128 -64.4537
lclavicle 5.76476e-015 -6.16232e-014
lhumerus -47.1076 0.373719 89.5719
lradius 30.4393
lwrist -13.6751
lhand -13.1668 -5.95426
lfingers 7.12502
lthumb 12.9324 23.625
rfemur -4.89205 19.5457 27.9118
rtibia 5.58113
rfoot -11.3819 -19.7752
rtoes 2.36222
lfemur 6.41624 -43.3995 -12.3378
ltibia -4.73222
lfoot -20.9636 50.8158
ltoes 9.5607
150
root -0.897715 17.4901 7.59271 8.01896 -1.38844 -8.58674
lowerback 2.35179 1.15945 5.9673
upperback -8.90707 2.24946 2.25532
thorax -10.7208 0.704111 -1.16625
lowerneck -7.54775 -6.17874 -5.39328
upperneck 8.0287 -8.83254 11.1049
head 4.38112 -3.97271 3.71971
rclavicle -9.79014e-015 3.57812e-014
rhumerus -47.6946 13.3495 -99.2799
rradius 41.9888
rwrist 16.563
rhand 17.644 -40.9751
rfingers 7.12502
rthumb 42.3344 -65.4521
lclavicle -9.79014e-015 3.57812e-014
lhumerus -47.8219 0.0126368 90.0264
lradius 32.5802
lwrist -11.4743
lhand -12.853 -5.2045
lfingers 7.12502
lthumb 13.2349 24.3553
rfemur -4.94964 19.3 28.0706
rtibia 5.73564
rfoot -11.5397 -19.6385
rtoes 2.78106
lfemur 6.26983 -43.4296 -12.102
ltibia -4.5951
lfoot -21.0685 50.6515
ltoes 9.40452
151
root -0.949193 17.4892 7.5843 7.94914 -1.16556 -8.55977
lowerback 2.5795 1.15026 6.14935
upperback -8.82002 2.26608 2.24446
thorax -10.7547 0.696293 -1.28609
lowerneck -7.80005 -6.05748 -4.97781
upperneck 7.6326 -8.61806 10.6437
head 4.24623 -3.87991 3.52334
rclavicle 2.37051e-014 -5.62561e-014
rhumerus -48.2248 14.4467 -99.9411
rradius 44.3711
rwrist 14.5632
rhand 17.5298 -41.9223
rfingers 7.12502
rthumb 42.2273 -66.4357
lclavicle 2.37051e-014 -5.62561e-014
lhumerus -48.3813 -0.468418 90.6112
lradius 34.687
lwrist -9.62358
lhand -12.8481 -4.59143
lfingers 7.12502
lthumb 13.2396 24.9681
rfemur -4.9794 19.1114 28.2606
rtibia 5.90385
rfoot -11.7007 -19.5706
rtoes 3.3098
lfemur 6.14996 -43.5409 -11.8927
ltibia -4.43116
lfoot -21.089 50.5621
ltoes 9.13476
152
root -1.00324 17.4883 7.57375 7.88511 -0.929403 -8.51344
lowerback 2.80638 1.12884 6.30094
upperback -8.71748 2.2654 2.25618
thorax -10.7733 0.684585 -1.36289
lowerneck -7.85236 -5.8351 -4.38467
upperneck 7.06595 -8.26865 10.0602
head 4.00518 -3.73266 3.27885
rclavicle -3.45388e-015 -1.12313e-014
rhumerus -48.7673 15.7222 -100.628
rradius 46.9807
rwrist 12.7875
rhand 17.4653 -42.5199
rfingers 7.12502
rthumb 42.1669 -67.0538
lclavicle -3.45388e-015 -1.12313e-014
lhumerus -48.7391 -1.12098 91.3897
lradius 36.7401
lwrist -8.28026
lhand -13.0829 -3.93827
lfingers 7.12502
lthumb 13.0133 25.6358
rfemur -5.08439 18.7806 28.421
rtibia 6.14243
rfoot -11.7707 -19.4256
rtoes 3.5148
lfemur 5.91075 -43.3872 -11.5759
ltibia -4.28072
lfoot -20.9605 50.2104
ltoes 8.95784
153
root -1.05907 17.4877 7.56013 7.79982 -0.649468 -8.53129
lowerback 3.07269 1.08585 6.49935
upperback -8.61054 2.24675 2.30161
thorax -10.8131 0.661436 -1.42816
lowerneck -8.02248 -5.64951 -3.94958
upperneck 6.66453 -7.97642 9.54528
head 3.85112 -3.60665 3.07221
rclavicle -5.24295e-015 5.1684e-015
rhumerus -49.3387 17.1442 -101.373
rradius 49.7594
rwrist 11.4451
rhand 17.4348 -42.9771
rfingers 7.12502
rthumb 42.1384 -67.5206
lclavicle -5.24295e-015 5.1684e-015
lhumerus -49.0709 -2.06435 92.373
lradius 38.7712
lwrist -7.72309
lhand -13.9303 -3.92145
lfingers 7.12502
lthumb 12.1963 25.703
rfemur -5.20287 18.4654 28.6727
rtibia 6.41632
rfoot -11.805 -19.3344
rtoes 3.65481
lfemur 5.54776 -42.8947 -11.0359
ltibia -4.16254
lfoot -20.2692 49.5947
ltoes 8.14728
154
root -1.11617 17.4872 7.5443 7.6795 -0.367358 -8.56648
lowerback 3.41063 1.04306 6.71389
upperback -8.50871 2.23849 2.35145
thorax -10.9017 0.640603 -1.50027
lowerneck -8.56138 -5.65433 -3.77395
upperneck 6.66563 -7.9505 9.10846
head 3.91311 -3.59471 2.89891
rclavicle -9.4547e-015 -2.5842e-014
rhumerus -49.8625 18.6889 -102.214
rradius 52.55
rwrist 10.5195
rhand 17.2632 -43.3099
rfingers 7.12502
rthumb 41.9776 -67.9074
lclavicle -9.4547e-015 -2.5842e-014
lhumerus -49.4251 -3.4329 93.6125
lradius 40.7867
lwrist -7.70591
lhand -15.8051 -5.08347
lfingers 7.12502
lthumb 10.3882 24.6399
rfemur -5.28003 18.2572 28.9801
rtibia 6.7078
rfoot -11.8612 -19.3424
rtoes 3.92121
lfemur 5.14533 -42.2514 -10.4658
ltibia -3.9801
lfoot -19.0516 48.9158
ltoes 6.36683
155
root -1.17543 17.4841 7.52319 7.6622 -0.158491 -8.55924
lowerback 3.71833 1.04129 6.88343
upperback -8.43733 2.27959 2.37497
thorax -11.0028 0.645208 -1.5811
lowerneck -8.73697 -5.46689 -3.84026
upperneck 6.17445 -7.65659 9.23162
head 3.78207 -3.45253 2.96833
rclavicle 2.2239e-014 1.19271e-015
rhumerus -50.2652 20.2996 -103.099
rradius 55.3146
rwrist 9.71131
rhand 16.9092 -43.5225
rfingers 7.12502
rthumb 41.6456 -68.2302
lclavicle 2.2239e-014 1.19271e-015
lhumerus -49.6732 -5.27251 95.0985
lradius 42.7712
lwrist -7.73711
lhand -18.2115 -6.8724
lfingers 7.12502
lthumb 8.06619 22.9537
rfemur -5.57167 17.9037 29.1774
rtibia 7.10643
rfoot -11.9082 -19.1462
rtoes 4.08614
lfemur 4.53472 -41.4904 -9.83541
ltibia -3.69912
lfoot -17.8992 48.1909
ltoes 4.47501
156
root -1.23781 17.4922 7.50729 7.20119 0.496107 -8.46458
lowerback 4.31395 0.852586 7.02368
upperback -8.22941 2.08474 2.38332
thorax -11.1421 0.538177 -1.63813
lowerneck -8.94461 -5.32149 -3.78989
upperneck 5.82972 -7.42943 9.18457
head 3.69335 -3.34395 2.96021
rclavicle 4.20554e-015 3.2054e-014
rhumerus -50.5289 21.9238 -104.011
rradius 57.9647
rwrist 8.87914
rhand 16.7709 -43.6894
rfingers 7.12502
rthumb 41.5159 -68.4396
lclavicle 4.20554e-015 3.2054e-014
lhumerus -49.8707 -7.41564 96.7177
lradius 44.7817
lwrist -7.50375
lhand -20.142 -8.99587
lfingers 7.12502
lthumb 6.20277 20.8933
rfemur -5.13471 17.562 29.4769
rtibia 7.15751
rfoot -12.0655 -19.4239
rtoes 4.92751
lfemur 4.32803 -40.682 -9.52765
ltibia -3.38195
lfoot -16.6711 46.9395
ltoes 2.59496
157
root -1.30483 17.4957 7.48934 6.94496 1.01329 -8.44213
lowerback 4.70775 0.708217 7.11342
upperback -8.08259 1.93538 2.44935
thorax -11.2284 0.461619 -1.60441
lowerneck -8.33123 -4.77134 -2.46282
upperneck 5.20767 -6.61057 6.73448
head 3.54551 -3.05918 2.29449
rclavicle 3.44767e-016 -3.66758e-014
rhumerus -50.648 23.6094 -104.918
rradius 60.5106
rwrist 7.4825
rhand 16.8997 -43.895
rfingers 7.12502
rthumb 41.6367 -68.6056
lclavicle 3.44767e-016 -3.66758e-014
lhumerus -50.0803 -9.68633 98.4609
lradius 46.8978
lwrist -6.60936
lhand -21.4519 -11.4042
lfingers 7.12502
lthumb 4.93803 18.5182
rfemur -5.00862 17.3376 29.7911
rtibia 7.3613
rfoot -12.3286 -19.6105
rtoes 5.93208
lfemur 3.90437 -39.881 -8.96806
ltibia -3.09905
lfoot -15.8771 45.7898
ltoes 1.36787
158
root -1.37106 17.4975 7.46629 6.78657 1.45374 -8.48725
lowerback 5.08765 0.600388 7.285
upperback -7.96157 1.84523 2.5155
thorax -11.3307 0.405872 -1.62233
lowerneck -8.34378 -4.5483 -1.88698
upperneck 4.89481 -6.28231 5.77096
head 3.34893 -2.92762 1.88437
rclavicle -1.11832e-014 -2.5842e-015
rhumerus -50.5048 25.2271 -105.73
rradius 63.0836
rwrist 5.18379
rhand 17.3098 -44.4221
rfingers 7.12502
rthumb 42.0212 -69.005
lclavicle -1.11832e-014 -2.5842e-015
lhumerus -50.1148 -12.0373 100.229
lradius 49.0036
lwrist -5.60442
lhand -22.6122 -13.4277
lfingers 7.12502
lthumb 3.81759 16.5179
rfemur -5.10674 17.0259 30.1162
rtibia 7.68928
rfoot -12.5257 -19.6708
rtoes 6.34772
lfemur 3.22937 -38.7426 -8.15709
ltibia -2.78503
lfoot -14.6315 44.4596
ltoes -0.496343
159
root -1.43427 17.497 7.43848 6.66813 1.86715 -8.5384
lowerback 5.49582 0.510557 7.51673
upperback -7.84246 1.78725 2.54849
thorax -11.4485 0.358212 -1.71361
lowerneck -8.76182 -4.44551 -1.6335
upperneck 4.69955 -6.13296 5.39984
head 3.32705 -2.85911 1.71683
rclavicle 1.29831e-015 2.06736e-014
rhumerus -50.1046 26.7336 -106.457
rradius 65.5353
rwrist 2.74543
rhand 17.8536 -44.8381
rfingers 7.12502
rthumb 42.5306 -69.2478
lclavicle 1.29831e-015 2.06736e-014
lhumerus -49.9081 -14.3223 101.862
lradius 51.0323
lwrist -5.05029
lhand -23.9027 -14.9822
lfingers 7.12502
lthumb 2.57136 14.9821
rfemur -5.29283 16.6573 30.3998
rtibia 8.01353
rfoot -12.6179 -19.6552
rtoes 6.66242
lfemur 2.39106 -37.3434 -7.26538
ltibia -2.35903
lfoot -13.3404 42.8788
ltoes -2.4645
160
root -1.49684 17.495 7.41042 6.58716 2.24975 -8.51739
lowerback 5.85531 0.444968 7.65326
upperback -7.73729 1.74763 2.56933
thorax -11.5515 0.327124 -1.7667
lowerneck -9.10166 -4.36367 -1.66995
upperneck 4.50796 -6.00757 5.40029
head 3.32259 -2.79505 1.72586
rclavicle 1.37286e-014 2.5842e-015
rhumerus -49.537 27.9126 -107.005
rradius 67.8591
rwrist 0.872827
rhand 18.4468 -44.9344
rfingers 7.12502
rthumb 43.0855 -69.15
lclavicle 1.37286e-014 2.5842e-015
lhumerus -48.8562 -16.5331 103.421
lradius 51.6639
lwrist -4.59126
lhand -25.4213 -16.8581
lfingers 7.12502
lthumb 1.10463 13.1188
rfemur -5.52763 16.2362 30.5764
rtibia 8.34965
rfoot -12.6948 -19.553
rtoes 6.96704
lfemur 1.52726 -35.9991 -6.49458
ltibia -1.84012
lfoot -12.4017 41.2912
ltoes -3.91117
161
root -1.55962 17.4932 7.37923 6.53418 2.69356 -8.45572
lowerback 6.22356 0.396656 7.74372
upperback -7.68667 1.72826 2.5527
thorax -11.7203 0.304438 -1.83732
lowerneck -9.23041 -4.33298 -1.71157
upperneck 4.22359 -5.95223 5.48416
head 3.25207 -2.7673 1.7632
rclavicle -1.23184e-014 -1.93815e-014
rhumerus -48.8643 28.9854 -107.51
rradius 70.1513
rwrist -0.685215
rhand 18.8992 -44.9382
rfingers 7.12502
rthumb 43.5083 -69.0021
lclavicle -1.23184e-014 -1.93815e-014
lhumerus -49.1378 -18.6686 104.894
lradius 54.9444
lwrist -4.10511
lhand -25.9801 -17.6223
lfingers 7.12502
lthumb 0.56494 12.3567
rfemur -5.78759 15.7835 30.7031
rtibia 8.64652
rfoot -12.7351 -19.4886
rtoes 7.07777
lfemur 0.507558 -34.4446 -5.70747
ltibia -1.22127
lfoot -11.3792 39.4584
ltoes -5.3742
